<?xml version="1.0" encoding="utf-8"?>
<!-- Generator: Adobe Illustrator 24.1.2, SVG Export Plug-In . SVG Version: 6.00 Build 0)  -->
<svg version="1.1" id="Layer_1" xmlns="http://www.w3.org/2000/svg" xmlns:xlink="http://www.w3.org/1999/xlink" x="0px" y="0px"
	 viewBox="0 0 475 475" style="enable-background:new 0 0 475 475;" xml:space="preserve">
<style type="text/css">
	.st0{fill:#6875F5;}
	.st1{fill:#FFFFFF;}
</style>
<path class="st0" d="M414.72,475H60.28C26.99,475,0,448.01,0,414.72V60.28C0,26.99,26.99,0,60.28,0h354.44
	C448.01,0,475,26.99,475,60.28v354.44C475,448.01,448.01,475,414.72,475z"/>
<path class="st1" d="M136.37,311.74c0.04,0.13,0.67,0.34,0.72,0.48c0.13,0.43-0.01,0.6-0.24,0.72c0,0,0.4,1.16,0.48,1.44
	c-0.35-0.25-0.53-0.11-0.96-0.24c-0.06-0.32-0.45-0.54-0.48-0.72C135.76,312.73,136.3,312.16,136.37,311.74z M134.21,311.74
	c0.34,0.1,1.32,1.35,0,0.96C133.88,312.6,133.54,311.54,134.21,311.74z M255.65,310.3c0.01,0.08-0.18,0.83-0.24,1.2
	c1.63,1.28,4.21,2.9,2.64-0.96C257.04,310.39,256.57,310.43,255.65,310.3z M261.89,308.86c-0.94,0.89-1.59,1.83-2.4,2.88
	c0-0.01,0.48-0.48,0.48-0.48c0.85-0.29,1.5-0.43,2.88-0.48c-0.13-0.77-0.15-1.03-0.24-1.92
	C262.57,308.86,261.89,308.86,261.89,308.86z M257.81,303.34c0.1,0.41,0,1,0,1.44c2.37,0.6,1.5,1.22,2.16-1.2
	c-0.22-0.17-0.4-0.16-0.48-0.48c-0.4-0.12-0.65-0.04-0.96-0.24C258.48,302.99,257.95,303.22,257.81,303.34z M260.21,284.62
	c0.07,0.1,0,0.6,0,0.72c0.25,0.12,0.73,0.67,0.96,0.72c2.57,0.58,1.52-1.84,1.2-2.64c-0.21,0-0.78,0.09-0.96,0
	C261.11,283.8,260.5,284.22,260.21,284.62z M254.93,264.7c0.4,0.87,0.39,2.27,2.16,1.68c0.17-0.06,0.46-0.6,0.72-0.72
	c0-0.34-0.11-0.89,0-1.2c-0.23-0.17-0.79-0.89-0.96-0.96c-0.26-0.1-0.49,0.15-0.72,0C255.8,263.89,255.27,264.28,254.93,264.7z
	 M288.29,253.42c0.73,1.34,1.43,2.2,1.68,4.08c0.24,0.04,0.6,0.46,0.72,0.48c1.34,0.25,2.2-0.72,2.88,0.96
	c0.41,1-0.06,2.84,1.2,2.16c0.36-0.2,0.41-2.17,0.48-2.64c-1.66-0.43-2.81-1.15-3.84-2.16c0.06-0.18,0.25-0.71,0.24-0.72
	C291.45,255.28,288.77,253.71,288.29,253.42z M241.73,249.34v0.48c-0.02-0.11-0.31,0.86-0.24,1.2c0.08,0.39,0.71,1.2,0.96,1.68h0.48
	c0.13,0.11,0.31,0.66,0.48,0.72c0.26,0.09,0.71-0.12,0.96,0c0.06-0.14,0.72-0.96,0.72-0.96c0.08-0.59-0.43-0.5-0.48-0.72
	c-0.16-0.58,0.28-0.93,0.24-1.2C244.76,250.08,242.86,248.81,241.73,249.34z M331.97,244.06c-0.13,0.25-0.67,0.54-0.72,0.72
	c-0.2,0.59-0.17,1.46-0.24,1.92c-0.83,0.28-1.64,0.64-2.4,0.96c0.61,0.98,0.9,1.84,1.92,2.4c4.34,2.34,2.18-3.69,1.92-6H331.97z
	 M250.85,241.42c-0.07,0.19-0.57,0.59-0.72,0.72c0.54,1.1,0.76,2.5,2.4,1.92c0.46-0.17,0.41-0.71,0.72-0.96
	c-0.24-0.16-0.46,0.1-0.72,0c-0.58-0.22-0.65-1.49-1.2-1.68H250.85z M253.49,238.3c-0.12,0.31-0.43,0.33-0.72,0.48
	c0.2,0.54,0.14,0.96,0.24,1.44c0.4,0.04,0.23,0.28,0.48,0.48c0.11-0.11,0.8,0,0.96,0c-0.13-0.98-0.11-1.52-0.24-2.4
	C254.17,238.3,253.49,238.3,253.49,238.3z M332.69,233.98c-0.01,0.01,0.17,0.69,0.24,0.96c-0.26,0.05-0.38,0.44-0.48,0.48
	c-0.62,0.21-1.45,0.16-1.92,0.24c-0.18,2.23-0.82,3.25-0.72,5.04c-0.96-1.79-1.63-1.65-3.12-0.48c-0.23-0.29-0.4-1.03-0.72-1.2
	c-0.77-0.44-4.2-0.21-5.52-0.48c-0.06,0.25-0.45,0.38-0.48,0.48c-0.31,0.88,0,2.42,0,3.36c-0.04,0.02-0.48,0.24-0.48,0.24
	c-0.17-0.36-0.45-0.48-0.72-0.72c0.62-2.06,0.07-4.8-2.4-3.12c-0.31,0.2-0.22,0.95-0.48,1.2c-0.24,0.22-0.95,0.37-1.2,0.48
	c0.17,0.67-0.07,1.12,0.24,1.68c0.47,0.85,2.54,0.72,2.88,1.68c0.14,0.4-0.15,0.79,0,1.2c-0.08,0-0.66-0.05-0.72,0
	c-0.75-0.68-1.02-1.12-1.44-2.16c-0.81-0.11-2.15,0.04-3.12-0.24c-0.08-0.03-0.58-0.7-0.72-0.72c-0.91-0.15-1.22,0.56-2.16,0.24
	c-0.1-0.04-0.23-0.44-0.48-0.48c1.26-0.72,1.15-0.6,0.96-2.4l-0.72-0.24c-0.2,0.29-0.55,0.23-0.72,0.48
	c-0.14,0.2-0.07,1.06-0.24,1.2c-0.57,0.45-1.42-0.1-1.92,0.72c-0.21,0.33-0.63,2.27-0.72,2.64c-4.64-1.37-2.92,2.14-5.76,2.16
	c0,0-0.6-0.22-0.72-0.24v-0.48c0.33-0.11,0.86,0,1.2,0c-0.11-0.08,0.2-0.42,0.24-0.48c-0.24-0.2-0.37-0.13-0.48-0.48
	c-0.97-0.18-2.42-0.61-3.12-0.48c-0.45,0.08-1.07,0.97-1.44,1.2c-0.9,0.52-1.87,0.48-2.88,0.96c-0.18,0.08-0.49,0.67-0.72,0.72
	c-0.81,0.15-1-0.47-1.68-0.24c-0.08,0.02-0.42,0.63-0.48,0.72c-0.86,1.1-0.66,1.62,0,2.88c-0.55,0.14-1.09,0.26-1.92,0.48
	c0.11-0.26-0.1-0.7,0-0.96c0.02-0.08,0.63-0.42,0.72-0.48c-0.15-0.41,0.14-0.79,0-1.2c-0.05-0.14-0.62-0.49-0.72-0.72
	c-0.49,0.2-1.03,0.16-1.44,0.24c-0.11,0.96-0.38,2.63-0.48,3.6c-0.74,0-0.68-0.1-1.44,0c0.12,0.34-0.13,0.85,0,1.2
	c0.13,0.38,1.3,0.74,1.68,0.96c-0.01,0.04-0.1,1.34-0.24,0.96c-0.15,0.25,0.1,0.44,0,0.72c-0.05,0.13-0.59,0.5-0.72,0.72h-0.48
	c-0.36-0.77-0.52-1.33-0.96-1.92c-1.08-1.43-0.89-0.58-2.64-1.2c-0.08-0.03-0.41-0.7-0.48-0.72c-0.41-0.15-0.79,0.14-1.2,0
	c-0.13,0.26-0.67,0.54-0.72,0.72c-0.23,0.69,0.05,1.39-0.24,1.92c-0.48,0.83-1.63,0.5-2.4,0.96c-0.94,0.54-1.42,2.65-1.68,3.84
	c-1.91-0.9-0.74-0.9-2.64,0c0.08,0.41-0.12,0.55-0.24,0.96c1,0.71,1.02,0.78,2.16,0.96c-0.08,0.03-0.05,0.88-0.24,0.96
	c-0.28,0.12-0.88,0-1.2,0c-0.13,0.27-0.67,0.71-0.72,0.96c-0.22,0.97,0.43,1.96,0.48,2.64c0.03,0.48-0.26,0.71-0.24,0.96h-0.48
	c-0.5-0.17-0.95-1.54-1.44-1.68c-0.77-0.22-0.85,0.26-1.44,0.24c-0.62,2.07-0.78,1.9,0.72,3.12c-0.49,0.43,0.11,3.13,0.24,4.08
	c-0.36-0.35-0.83-0.61-1.2-0.96c0.5,0-1.31-0.2-0.72,0c-0.28,0.23-0.69,0-0.96,0.24v0.48c-0.75,2.16,0.67,2.42,1.44,4.32
	c-0.08,0.08,0.04,0.62,0,0.72c-0.12,0.29-1.28,0.63-1.44,0.96c-0.12,0.22,0.04,0.71,0,0.96c-0.05,0.23-0.71,1.12-0.72,1.2
	c-0.12,0.46,0.1,0.97,0,1.44c0.43,0.38,1.36,0.97,1.68,1.44c0.26,0.39,0.17,0.88,0.48,1.2c0.34,0.34,0.91,0.32,1.2,0.72
	c0.71,0.97,1.33,3.46,1.68,4.8c0.35,0.08,0.85,0.02,1.2,0.24c-0.11,0.09-0.17,0.62-0.24,0.72c-0.22,0.32-1.03,0.41-1.2,0.72
	c-0.43,0.74,0.08,2.62,0,3.84c0.44,0.18,0.11,0.02,0.24,0.48c0.97,0.03,1.49,0.16,2.64,0c-0.1,0.26,0.07,0.68,0,0.96
	c-0.21,0.76-1.61,1.31-0.72,2.64c0.13,0.19,0.89,0.25,0.96,0.48c0.34,1.15-0.81,1.78,0.24,2.4c0.29,0.16,1.33,0.41,1.68,0.48
	c-0.1,0.85-0.5,1.99,0,2.88c0.08,0.15,0.68,0.32,0.72,0.48c0.15,0.56-0.22,1.38,0,1.92c0.05,0.14,0.35,0.12,0.48,0.24
	c0.64,0.57,1.27,0.48,1.92,0.96c0.23,0.17,0.07,0.44,0.24,0.72c0.94,1.52,2.21,0.67,3.36,0c-0.13,1.67-0.19,2.3-0.48,3.84
	c0.17,0.04,1.44,0.35,1.2,0.24c0.66-0.43,1.43-0.28,1.68-1.2c0.06-0.25-0.13-0.74,0-0.96c0.12-0.22,0.87-0.09,0.96-0.24
	c0.09,0.19-0.05,0.52,0,0.72c0.04,0.15,0.7,0.65,0.72,0.72c0.08,0.38-0.32,1.39-0.24,1.44c-0.15,0.04-0.45,0.41-0.48,0.48
	c0.04,0.04,0,0.65,0,0.72c1.18,0.52,1.51,0.68,3.36,0.48c0,0.14-0.1,1.14,0,1.2c-0.19,0.29-0.68,0.48-0.96,0.72
	c0.08,0.22,0,0.72,0,0.96c0.34,0.13,0.31,0.4,0.48,0.72c1.31-0.25,1.4-0.22,2.16-0.72c0.22-0.15,1.04-0.5,1.2-0.72
	c0.42-0.62,0.1-1.32,0.72-1.68c0.3-0.18,0.85,0.09,1.2,0l0.48-0.48c1.25-0.29,0.79,0.1,1.68,0.24c-0.13,0.39,0,1.02,0,1.44
	c-0.66,0.24-1.37,0.49-1.92,0.72c0.04,0.4,0.24,1.68,0.24,1.68c0.38,0.05,0.76,0.38,1.44,0.24c0.33-0.07,0.88-0.76,1.2-0.96
	c1.49-0.95,2.35-0.38,4.08-0.96c0.1-0.04,0.22-0.43,0.48-0.48c-0.11-0.53,0.22-1.21,0-1.68c-0.08,0-0.16,0-0.24,0
	c-0.44,0-0.88-0.55-1.2-0.72c0-0.44,0.1-1.01,0-1.44c0.22-0.19,0.34-0.72,0.72-0.72c0.08,0,0.16,0,0.24,0
	c0.45,0.43,1.02,1.5,1.68,1.68c0.27,0.07,0.69-0.1,0.96,0c-0.29,0.88-0.2,1.22-0.48,2.16c0.86,0.38,2.3,1.18,3.6,0.48
	c1.16-0.64,0.35-1.57,0.24-2.16c-0.11-0.62,0.27-0.89,0.24-1.2c1.6-0.1,2.96-0.34,4.56-0.96c0.08-0.04,0.17-0.46,0.24-0.48h0.48
	c0.35-0.59-0.03-1.38,0.24-2.16c0.17-0.52,0.98-0.79,1.2-1.2c0.25-0.49,0.03-0.74,0.24-1.2c1.04,0.04,3.23,0.14,4.32-0.48
	c0.49-0.28,0.74-1.11,1.2-1.44c0.21-0.17,0.46,0.09,0.72,0c1.56-0.61,0.5-2.17,0-2.88c0.83-0.23,2.39-0.46,2.64-1.2
	c0.13-0.39-0.19-1.1,0-1.44c0.08,0,0.16,0,0.24,0c0.96-0.49,1.64-1.45,2.4-2.16c0.25,0.11,0.69-0.1,0.96,0
	c0.59,0.2,0.71,1.44,2.16,0.96c0.17-0.06,0.46-0.6,0.72-0.72c-0.22-0.37-0.01-0.88-0.24-1.2c-0.11-0.15-1.33-0.67-1.44-0.96
	c-0.1-0.26,0.15-0.49,0-0.72c2.26-0.59,2.68-0.49,2.4-3.12c0.81-0.51,1.6-0.64,2.4-1.2c0.25-0.18,0.2-0.53,0.48-0.72
	c-0.17-1.12-0.46-2.62,0.48-3.12c1.76-0.94,2.3,0.56,3.12,0.72c1,0.19,1.12-0.38,1.68-0.48c-0.06-0.58,0.29-0.39,0.24-0.96
	c-0.02-0.23-0.53-0.77-0.48-1.2c0.01-0.11,0.7-0.67,0.72-0.72c0.11-0.29-0.14-0.46,0-0.72c-0.38-0.18-1.03-0.5-1.44-0.72
	c0.7-1.51,0.61-2.03,0-3.6c0.78,0.43,1.55,0.85,2.4,1.2c-0.06,0.01,1.21,0.02,1.44,0c0.18-0.41,0.91-2.68,1.2-2.88
	c0.62-0.44,1.51-0.09,2.16-0.48c0.51-0.32,0.2-1.36,0-1.2c0.1-0.39-0.13-0.83,0-1.2c0.03-0.1,0.43-0.23,0.48-0.48
	c1.89,0.14,2.17,0,3.36-0.48c0.19-1.73,0.2-2.44-0.96-3.36c-0.12-0.09-0.67-0.34-0.72-0.48c-0.18-0.52,0.08-1.13,0-1.68
	c0.38-0.11,0.39,0.2,0.48-0.24c0.4,0.17,0.79-0.18,1.2,0c0.31,0.13,0.2,1.01,0.48,1.2c1.41,0.96,3.2,0.3,3.6-0.96
	c0.29-0.93-0.13-0.91-0.24-1.68h-0.48l0.24-1.92c-0.86,0.06-0.99,0.04-1.44,0c-0.15-0.41,0.14-0.79,0-1.2
	c-0.06-0.16-0.63-0.34-0.72-0.48c-0.25-0.41-0.03-0.74-0.24-1.2c0.26-0.14,0.43-0.65,0.72-0.72c0.16-0.04,0.56,0.11,0.72,0
	c0.44-0.32,0.7-1.51,1.2-1.68c0.54-0.2,1.58,0.02,2.16,0c0.38-1.3,0.81-2.33,1.2-3.36c-0.18-0.12-0.26-0.83-0.48-0.96
	c-0.47-0.27-1.08-0.25-1.44-0.48c-1.4-0.9,1.58-1.61,2.16-2.16c0.23-0.22,0-0.73,0.24-0.96c-0.26-0.06-3.26-0.66-3.36-0.72
	c-0.13-0.08-0.82-1.88-0.96-2.16c1.2-0.39,1.35-0.65,2.16-1.2c-0.35-0.32-0.33-0.91-0.72-1.2c-0.34-0.25-0.55-0.12-0.96-0.24
	c0.01-0.04-0.18-0.88-0.24-1.2c0.75-0.35,1.29-0.6,1.92-0.96c-0.13-0.35,0.12-0.86,0-1.2c-0.06-0.16-0.63-0.34-0.72-0.48
	c-0.32-0.52-0.53-1.44-0.72-1.92c-0.13,0.4-0.24-0.72-0.24-0.72c1.03-0.6,0.28-2.01-0.96-1.92l-0.48,0.48
	c-0.46,0.23-0.79,0.3-1.2,0.48c-0.01,0.04-0.03,1.56,0,1.44c0.14,0.3,0.61,0.49,0.72,0.72c0.24,0.51,0.09,0.99,0.24,1.44
	c-0.53-0.46-0.95-0.72-1.44-1.2c-0.41,0.14-0.79-0.15-1.2,0c-0.3,0.1-0.67,1.09-0.96,1.2c-0.41,0.14-0.79-0.15-1.2,0
	c-0.03-0.05-0.24-0.48-0.24-0.48c-0.12,0.37-0.24-0.91-0.24-0.96c0.05-0.05,0.7-0.43,0.72-0.48c0.17-0.61-0.29-0.92-0.24-1.2h-0.48
	c-0.32,0.11-0.63,1.21-0.96,1.44c-0.16,0.1-0.55-0.05-0.72,0c-0.17,0.04-0.79,0.66-0.96,0.72c-1.44,0.46-2.75,0.48-4.56,0.48
	c-0.43,0.89-0.4,0.86-0.72,2.16c-0.04,0-0.72-0.02-0.72,0c-0.05-0.58-0.24-1.72-0.24-2.64c0.54-0.19,0.74-0.11,1.44-0.24
	c-0.08-1.08-0.08-2.37-0.48-3.6c1.13,0.21,1.25,0.36,2.4,0l0.24-0.48c0.41-0.17,1.24,0,1.68,0c-0.04-0.23,0.33-0.47,0.24-0.96
	c-0.19-1.01-1.57-1.92-2.16-2.64c-0.25,0.35,0.01,0.6-0.24,0.96c-0.19,0.26-0.46,0.04-0.72,0.24c-0.29,0.21-0.5,0.91-0.72,1.2
	c-0.05-0.07-0.65-0.17-0.72-0.24c-0.21-0.2-0.15-0.64-0.24-0.96c-0.26-0.05-0.38-0.45-0.48-0.48c-0.89-0.31-1.38,0.32-1.92,0.48
	l-0.24-0.24c0.08-1.45-0.08-1.63-0.24-2.64c-0.19,0-0.8,0.1-0.96,0C333.45,233.32,332.82,233.58,332.69,233.98z M231.89,221.98
	c0.01,0.13,0,3.12,0,3.12c-0.12,0.18-0.61,0.29-0.72,0.48c-0.1,0.16-0.11,1.09-0.24,1.2c-0.36,0.29-0.6,0.13-1.2,0.24
	c0.3,0.16-0.57,0.28-0.72,0.24c-0.11-0.04-0.23-0.4-0.48-0.48c0.16-1.26,0.48-2.66-0.72-3.12c-0.48-0.19-0.56,0.34-1.2,0.24
	c-0.2-0.04-0.77-0.68-0.96-0.72c-1.9-0.41-2.71,0.85-3.6,1.44c-0.24-0.16-0.46,0.1-0.72,0c-0.37-0.14-0.62-1.04-0.96-1.2
	c-0.85-0.41-2.97-0.23-3.84,0.24c-1.15,0.62-0.54,3.19-1.2,4.32c-0.1,0.17-1.66,1.42-1.92,1.68c-0.28-0.26-1.18-1.36-1.44-1.44
	c-2.51-0.72-4.04,3.57-5.28-0.96c-0.13-0.02-0.92-0.37-1.44-0.24l-0.24,0.48c-0.79,0.51-1.46,1.55-0.24,2.16
	c0.2,0.1-0.34,0.26-0.24,0.48c-0.52,0.14-1.16,0.58-1.68,0.48c-0.61-0.13-0.54-1.18-1.92-0.96c-0.34,0.05-2.01,1.64-2.16,1.68
	c-0.53,0.11-1.65-0.16-2.4-0.24l-0.24,0.72c-1.9,0.5,0.16-0.98,0.48-1.2c-0.07-0.37-0.25-1.12-0.24-1.2
	c-0.97-0.15-1.25-0.1-2.16-0.24c-0.07,0.31-0.29,0.32-0.48,0.48c0.25,0.98,0.24,1.39,0.48,2.16c-0.61,0.28-1.42,0.15-1.68,0.72
	c-0.23,0.47-0.2,1.81-0.24,2.16c-0.49-0.15-0.48,0.38-0.96,0.24c-0.32-0.1-0.5-1.06-0.96-1.2c-1.25-0.38-2.39-0.08-3.6-0.24
	c-0.19,2.41-1.31,3.97-2.4,5.52c-0.11-0.08-0.61,0-0.72,0c-0.5-1.06-0.43-0.85-0.72-2.4c-0.41-0.11-0.38,0.18-0.48-0.24
	c-0.25,0.13-0.71-0.09-0.96,0c-0.11,0.03-0.23,0.39-0.48,0.48c0,0.01,0.02,1.12,0.24,0.72c-0.06,0.23-0.24,0.96-0.24,0.96
	c-0.55,0.08-1.16-0.18-1.68,0c-0.35,0.11-0.62,1.05-0.96,1.2c-1.75,0.76-3.29-0.25-4.56-0.72c-0.51,0.69-0.87,0.83-1.2,1.92
	c0.01-0.19,0.09-1.61,0-1.92c-0.04-0.14-0.44-0.18-0.48-0.48c-0.34,0.12-0.86-0.13-1.2,0c-0.19,0.06-0.63,0.53-0.96,0.72
	c-0.23-0.15-0.48-0.83-0.72-0.96c-0.34-0.18-2.84-0.65-3.36-0.48c-0.04,0.01-0.19,0.44-0.24,0.48c-1.4,1.23-0.68,0.94-0.48,2.4
	l0.24,0.96c0.01-0.01,1.12-0.03,0.72-0.24c0.28,0,0.67,0.02,0.96,0c0,0.08-0.04,0.95,0,0.96c-0.57-0.11-0.4,0.34-0.96,0.24
	c-0.2-0.04-0.77-0.92-0.96-0.96c-0.74-0.16-3.31,0.65-3.84,0.96c-0.24,0.13-0.07,0.55-0.24,0.72c-0.29,0.28-0.83,0.24-1.2,0.48
	c-0.16,0.09-0.33,0.66-0.48,0.72c-0.14,0.05-0.59-0.08-0.72,0c-0.17-0.44-0.36,0.01-0.48-0.24c-0.1-0.2,0-0.75,0-0.96
	c-0.42-0.1-0.14-0.09-0.24-0.48c-0.42,0-1.05,0.12-1.44,0c-0.53,0.74-1.12,1.75-1.92,2.16c-1.16,0.59-3.9,0.73-4.56,1.68
	c-0.25,0.35,0.01,0.6-0.24,0.96c-0.42-0.15-0.19,0.27-0.24,0.48c-0.61-0.19,0,0.72,0,0.72c0.63,0.19,0.78-0.26,1.44-0.24
	c0,0.03-0.01,0.71,0,0.72c-0.59,0.17-0.54,0.08-1.2,0.24c0.36,0.25-0.68,0.22-0.72,0.24l-0.24-1.2c-0.17-0.1-1.13,0.13-1.2,0
	c-0.2-0.4,0-1.46,0-1.92c-2.57-0.57-1.75-0.41-2.88,1.68c-0.04,0.08-0.72,0.7-0.72,0.72c-0.19,0.86,0.35,1.61,0.24,2.16
	c-0.06,0.25-0.64,0.48-0.72,0.72c-0.29-0.13-0.88,0-1.2,0c0.04-0.67,0.1-0.95,0.24-1.68c-0.21-0.16-0.43-0.14-0.48-0.48
	c-0.46,0.02-1.68,0.24-1.68,0.24c-0.02,0.01-0.68,0.19-0.72,0.24c-0.34,0.32-0.15,1.34-0.48,1.68c-0.48,0.47-1.42,0.29-1.92,0.72
	c-0.17,0.13,0,0.62-0.24,0.72c-0.34,0.13-0.87-0.13-1.2,0c0.25-0.12-0.48-0.48-0.48-0.48c0.04-0.08,0.48-0.72,0.48-0.72
	c0.86-0.26,1.69-0.13,2.16-0.72c0.04-0.06,0.48-0.72,0.48-0.72c0.08-0.36-0.24-1.44-0.24-1.44c-2.27,0-3.58,0.27-4.8,1.92
	c-0.2,0.26-0.2,0.83-0.48,0.96c-0.73,0.32-1.58-0.1-2.16,0.24c-0.31,0.17-1.21,3.03-0.96,3.84c0.05,0.17,0.6,0.47,0.72,0.72
	c0.44,0,1-0.11,1.44,0c-0.03,0.04-0.29,0.46-0.24,0.48c-1.84,0.32-1.9,0.73-2.64,2.16c-2.39,0-2.77,0.19-3.36,1.92v0.48
	c-0.49,0.39-1.41,0.12-1.92,0.48c-1.18,0.82-0.24,4.18-0.24,6.24c1.04,0.29,2.53,0.77,2.88,1.68c0.1,0.25-0.16,0.48,0,0.72
	c-0.56,0.39-3.73,3.21-3.84,3.6c-0.23,0.77,0.17,1.27,0.24,1.92c0.31-0.01,0.79,0.36,1.44,0.24c0.51-0.11,0.63-0.74,0.96-0.96
	c0.01,0,1.07,0.38,0.72,0.48c0.15,0.11,0.64,0.31,0.72,0.48c0.27,0.54,0.05,0.94,0.24,1.68c-0.33,0.06-0.35,0.46-0.48,0.72
	c-0.26-0.13-0.55-0.67-0.72-0.72c-0.51-0.17-1.16,0.08-1.68,0c-0.25,0.78-1.08,2.21-0.96,3.12c0.02,0.15,0.67,0.61,0.72,0.72
	c0.36,0.81-0.07,0.82,0,1.68c-0.31-0.16-0.19,0.37-0.72,0.24c-0.06-0.01-0.27-0.43-0.48-0.48c0.95-0.36-1.34-0.36-0.72-0.24
	l-0.24,0.96c0.96,0.58,2.71,1,3.36,1.92c0.36,0.51,0.25,1.29,0.72,1.68c0.75,0.62,1.68,0.25,1.92,1.44
	c0.27,1.37-0.68,1.77-0.48,2.88c0.11,0.61,1.2,0.95,1.44,1.44c0.18,0.38,0.46,1.72,0.48,1.92c0.1,1.08-0.28,3.77,0.24,5.04
	c0.08,0,0.16,0,0.24,0c0.72,0.36,1.24,1.69,1.92,1.92h0.48c0.12,0.11,0.07,0.63,0.24,0.72c0.53,0.27,1.12-0.07,1.68,0.24
	c0.44,0.25,2.38,2.99,1.44,3.84c1.19,0.94,3.61,1.55,3.36,3.84c-0.01,0-0.63,0.99-0.72,1.2c0.3-0.16,0.19,0.37,0.72,0.24
	c0.26-0.07,0.33-0.7,0.48-0.96c0.19,0,0.79,0.1,0.96,0c0.5,0.49,2.45,1.95,0.72,2.4c-0.17-0.21-0.48-0.88-0.72-0.96
	c-0.27-0.1-0.71,0.11-0.96,0c-0.12,0.23-0.53,0.55-0.72,0.72c0,0,0,0.88,0.24,0.48c0.17,0.55,0.11,0.4,0.24,0.96
	c0.48-0.22,0.24,1.68,0.24,1.68c1.45-0.47,1.97-0.6,3.6-0.48c0.04-0.08,0.19-0.47,0.24-0.48c0.22-0.06,1.18,0.18,0.96,0.24
	c0.36,0.61,0.78,1.14,1.2,1.68c-1.1,0.33-2.38,0.37-2.64,1.44c-0.04,0.12,0.06,0.61,0,0.72c-0.15,0.24-0.87,0.44-0.96,0.72
	c-0.13,0.34,0.12,0.85,0,1.2c0.44-0.21,0.8-0.02,1.2-0.24c0.44-0.26,0.79-1.12,1.2-1.44c0.81-0.66,1.61-1.02,2.4-1.68
	c0.55,0.81,1.21,1.94,1.92,2.64c0.29,0.29,1.28,0.59,1.44,0.96c0.28,0.7-0.29,0.89-0.24,1.44l0.48,0.72
	c0.35,1.75,0.1,1.32,0.72,2.64c0.26-0.11,0.68,0.07,0.96,0c0.66-0.18,1.39-1.25,1.92-1.68c1.81,1.64,3.33,2.95,6.24,1.44
	c-0.16,1.42-0.31,2.83,0.96,3.36c0.38,0.16,0.74-0.07,0.96,0.24c0.16,0.22,0.61,1.89,0.72,2.16c2.72-0.41,3.44-0.08,5.28,0.96
	c0.37-0.23,1.35-1.3,1.92-1.2c0,0-0.19,1.16-0.24,1.44c0.17,0.11,1.34,0.79,1.44,0.96c0.19,0.38-0.1,1.02,0,1.44
	c0.09,0.41,1.15,1.17,1.2,1.44c0.1,0.55-0.35,0.89-0.48,1.44c0.66-0.15,1.66-0.6,2.4-0.48c0.67,0.11,1.18,1.13,1.68,1.44
	c0.38,0.24,0.77-0.01,1.2,0.24c0.65,0.38,1.86,2.89,2.16,3.84c0.91-0.3,2.57-0.72,3.6-0.72c0.3-0.01,0.82,0.48,1.44,0.24
	c0-0.08,0-0.16,0-0.24c0.39-0.2,0.43-0.76,0.72-0.96c0.39-0.27,0.74,0,1.2-0.24c0.72,2.38-0.22,1.52,2.16,2.16
	c0.05-0.08,0.38-0.69,0.48-0.72c0.27-0.11,0.46,0.13,0.72,0c0.2,0.17,0.49,0.83,0.72,0.96c0.67,0.36,2.6,0.39,3.36,0.48
	c0.08,0.54-0.19,1.16,0,1.68c0.37,1.02,4.82,1.84,6.24,2.16c0.1,0.42-0.11,0.77,0,1.2c0.01,0.04,2.09,2.13,2.16,2.16
	c2.11,0.95,2.17-0.67,3.12-0.96c1.92-0.59,2.62,0.55,3.36,0.96c0.39,0.22,0.76,0.03,1.2,0.24c0.13-0.35,0.4-0.32,0.72-0.48
	c-0.19-1.34-0.12-2.08-0.24-2.88c0.38,0.1,0.58-0.13,0.96-0.24c0.21,0.37,0.8,1.77,1.2,1.92c1.36,0.51,3.14-0.45,4.08-0.48
	c1.61-0.07,1.81,0.53,2.64,1.2c2.25-0.99,2.44-0.05,5.04-0.48c0.24-0.04,1.3-0.71,1.44-0.72c0.83-0.14,1.64,0.33,2.16,0.24
	c0.23-0.04,0.71-0.61,0.96-0.72c-0.11-0.43,0.1-0.78,0-1.2c-0.02-0.09-2.4-3.5,0.72-2.64c0.1,0.02,0.53,0.68,0.72,0.72
	c0.49,0.09,0.73-0.29,0.96-0.24c-0.25-0.2,0.2-1.04,0.24-1.2c-0.27-0.14-0.1-0.42-0.24-0.48c-0.43-0.21-0.79-0.14-1.2-0.24
	c0.03-0.49-0.26-0.72-0.24-0.96c0.06-0.86,1.52-1.3,1.92-1.92c0.3-0.48,0.16-1.17,0.48-1.68c0.36-0.62,3.19-1.84,4.32-1.68
	c0.11,0.01,0.67,0.7,0.72,0.72c0.25,0.08,0.73-0.14,0.96,0c0.32,0.19,0.61,1.06,0.96,1.2c0.18,0.07,0.53-0.12,0.72,0
	c0.21-2.71,0.1-2.08,2.16-2.16c-0.03,0.64,0.15,1.54,0,2.16c-0.01,0.02-0.68,0.44-0.72,0.48c0.43,1.62-0.1,1.15,0.96,2.16
	c-0.25,0.08-0.38,0.44-0.48,0.48c-0.38,0.12-0.82-0.11-1.2,0c0.38,0.14-0.92,0.23-0.96,0.24c-0.06-0.17-0.11-0.52-0.24-0.72
	c-1.19-1.77-0.89-1.68-3.84-1.68c-0.16,0.47-0.16,1.25-0.48,1.68c-0.27,0.35-1.11,0.42-1.44,0.72c-0.36,0.31-0.22,0.23-0.48,0.72
	c0.01,0,0,0.68,0,0.72c0.17,0,0.82-0.11,0.96,0c-0.01,0.08,0.17,0.83,0.24,1.2c-1.19,0,0.09,1.88,0.24,2.16
	c-0.79,0.62-1.44,1.25-2.16,1.92c0.13,0.42,0.3,0.52,0.24,0.96c2.5,1.46,2.99,1.2,4.32-1.2c0.16,0.2,0.79,0.25,0.96,0.48
	c0.21,0.29,0.04,0.65,0.24,0.96c0.97,1.57,2.14,0.81,3.36,0.24c-0.2-1.81-0.04-2.14,0.24-3.36c0.23,0.13,0.71-0.11,0.96,0
	c0.36,0.15,0.68,1.3,1.2,1.44c1.81,0.45,2.06-0.92,2.88-1.44c0.42-0.28,0.76-0.03,1.2-0.24c0.42-0.22,0.83-0.92,1.2-1.2
	c0.19,0.09,0.52-0.05,0.72,0c0.38,0.09,0.68,0.83,0.96,0.96c0.81,0.38,1.27,0.04,2.16,0c0.04-0.17,0.47-0.68,0.48-0.72
	c0.33-1.3-0.74-1.93,0.24-2.64c0.25,0.11,0.69-0.1,0.96,0c0.38,0.13,0.44,1,0.72,1.2c1.28,0.94,2.33,0,3.36-0.48
	c-0.03-0.7,0-1.46,0-2.16c-0.55-0.22-1.97-0.65-2.16-1.2c-0.1-0.27,0.11-0.71,0-0.96c0.62,0.17,0.53-0.4,1.2,0
	c0.79,0.47,0.32,1.56,1.92,1.44c0.94-0.08,1.83-1.12,2.16-1.92c0,0,0.59-0.32,0.24-0.48c-0.4-0.19-0.86-0.95-0.72-1.68
	c0.02-0.11,0.65-0.4,0.72-0.48c0.56-0.75,0.43-1.34,0.72-2.4c-0.21-0.16-0.43-0.14-0.48-0.48c-0.08,0-0.66,0.04-0.72,0v-0.72
	c3.29,1.52,3.65,0.18,6.72-0.72c0.07-0.43,0.02-1.37,0.24-1.92c0.1-0.28,0.86-0.62,0.96-0.96c0.13-0.48-0.1-0.95,0-1.44
	c-0.22-0.17-0.4-0.16-0.48-0.48c-0.32,0-0.92,0.12-1.2,0c-0.16-0.08-0.38-0.91-0.48-0.96c0.22-0.01,0.56-0.37,0.72-0.48
	c1.33,0.89,0.81,0.78,2.64,0.72c-0.06-0.58,0.29-0.39,0.24-0.96c-0.03-0.25-0.7-0.86-0.72-0.96c-0.17-0.85,0.38-1.06,0.48-1.44
	c0.11-0.46-0.13-0.99,0-1.44c0.14-0.52,0.89-1,1.2-1.44c-0.1-0.17,0.04-0.55,0-0.72c-0.13-0.55-1.23-0.93-1.68-1.2
	c0.58-2,1.32-2.65,1.68-5.04c-0.2-0.05-0.64-0.47-0.72-0.48c-1.44-0.32-2.14,1.13-2.88,1.68c-0.13,0.09-0.4,0.59-0.48,0.72
	c-0.1-0.49-0.27-1.63-0.48-2.4c-0.06-0.2-0.69-0.77-0.72-0.96c-0.23-1.42,1.17-1.62,1.44-2.64c0-0.08,0-0.16,0-0.24
	c-0.04,0.18-0.3-0.7-0.24-0.96c0.08-0.39,1.97-3.69,0.96-4.32c-1.42-0.9-2.29,0.52-3.12,0.72c-0.14,0.03-0.6-0.06-0.72,0
	c-0.06-0.26-0.45-0.38-0.48-0.48c-0.26-0.76,0-2.08,0-2.88c0.13,0.44,0.24-0.24,0.24-0.24c-0.82-1.81-0.65-1.35-2.64-1.2
	c-0.22,0.83-0.72,3.91-1.44,4.32c-0.58,0.32-1.36-0.01-1.92,0.24c-0.11,0.04-0.67,0.71-0.72,0.72c-0.53,0.11-0.71-0.3-0.96-0.24
	c0.28,0-0.24-0.72-0.24-0.72c-0.07-0.87,0.88-2.36,0.96-2.88c0.12-0.96-0.36-1.76-0.48-2.4l0.24-0.72c0.45,0.1,0.99-0.15,1.44,0
	c1.12,0.38,0.74,2.52,2.64,1.68c1.89-0.85,0.76-2.9,0.24-4.08c-1.26,0.1-1.8,0.08-2.88,0.24c0.47-1.63,0.32-1.45,0-2.88
	c-0.22-0.03-0.79-0.31-1.2-0.48c0,0-1.6,1.55-1.2,1.68c1.03,0.32,0.47,3.06,0,3.84c-0.35,0.56-1.52,0.93-2.16,1.2
	c0.18-3.07-0.09-2.42,1.92-4.32c-0.29-0.89-0.22-1.11-0.48-1.92c0.12-0.1,0.65-0.34,0.72-0.48c0.21-0.46-0.2-0.71,0.24-0.96
	c0,0-0.44-1.25-0.48-1.44c0.24,0.15,0.71,0.08,0.96,0.24c0.15,0.09,0.33,0.67,0.48,0.72c0.26,0.08,1.15-0.18,0.96-0.24
	c0.05-0.14,0.67-0.34,0.72-0.48c0.25-0.73-0.25-1.92,0-2.64c0.18-0.53,1.49-0.31,1.2-1.92c-0.1-0.54-1.07-1.09-1.44-1.44
	c0.72-1.56,0.72-0.94,0.24-2.4c-0.35-1.08-0.67-2.24-1.68-2.64c-2.63-1.03-2.97,0.45-2.64,2.64c-0.17,0.13-1.15,0.55-1.2,0.72v0.48
	h-0.48c-0.18-0.65-0.04-1.1-0.48-1.44l-0.24-0.24c0.11-0.11-0.07-0.56,0-0.72c0.08,0,0.16,0,0.24,0c0.92-0.46,1.3-1.37,1.92-2.16
	c-2.36-0.43-2.36-1.48-3.12-4.08c0.57-0.27,1.79-1.18,2.4-1.2c1.28-0.06,0.98,0.67,1.44,0.96c0.43,0.27,0.73-0.04,1.2,0.24
	c0.3-0.2,0.62-0.56,0.96-0.72c-0.18-0.7,0.07-1.18-0.24-1.68c-0.04-0.05-0.96-0.48-0.96-0.48c-0.23-0.9,0.67-0.88,0.48-1.92
	c-0.1-0.54-0.94-0.83-1.2-1.2c-0.22-0.31-0.06-0.67-0.24-0.96c-0.42-0.67-1.46-1.05-2.16-1.44c0.1-0.47-0.13-0.99,0-1.44
	c0.08-0.26,0.92-0.85,0.96-1.2c0.13-1.33-1.27-2.05-2.16-2.4c-0.49-0.19,0.66-0.53,0.96-0.48l0.48,0.48
	c2.13,0.57,1.74-1.49,1.68-2.64c-0.31-0.05-0.34-0.44-0.48-0.48c-1.17-0.41-2.69,0.92-3.36,1.2l-0.48-0.72
	c0.04-0.14,0.67-0.35,0.72-0.48c0.13-0.41,0-1.01,0-1.44c0.37,0.16,0.13-0.39,0.72-0.24c0.1,0.02,0.35,0.64,0.48,0.72
	c1.22,0.76,1.73,0.16,2.64-0.48c-0.98-2.44-1.01-3.4-3.84-1.92c0.04-0.03,0-0.67,0-0.72c0.95-0.42,1.42-0.34,1.92-1.2
	c0.06-0.11,0.34-0.18,0.48-0.24c-0.11-0.26,0.09-0.7,0-0.96c-0.16-0.47-1.09-0.92-1.2-1.44c-0.31-1.39,0.21-2.42,0-3.84
	c0.23,0.14,0.47-0.4,0.96,0c0.51,0.43,0.07,2.42,0,3.36c0.46-0.07,0.87,0.31,1.68,0c0.08-0.04,0.17-0.47,0.24-0.48
	c0.02-0.22,0.68-0.62,0.48-1.44c-0.01-0.06-0.51-0.55-0.48-0.72c0.05-0.35,1.07-0.59,0.96-1.92c-0.07-0.79-0.88-0.55-0.48-1.68
	c0.01-0.07,0.64-0.6,0.72-0.72c0,0-0.05-0.62-0.24-0.24c-0.15-0.08-0.26-0.88-0.48-0.96c-0.49-0.18-1.39,0-1.92,0v-0.48
	c0.08,0,0.16,0,0.24,0c0.04-0.17,0.11-1.09,0.24-1.2c1.03-0.92,2.14,0.11,3.36-0.24c0.14-0.04,0.49-0.61,0.72-0.72
	c0-0.22-0.1-0.76,0-0.96c-0.79-0.98-1.48-1.51-2.64-2.16c0-0.3,0.14-1.2,0-1.44c-0.29-0.47-0.76-0.15-1.2-0.48
	c-0.55-0.4-0.79-1.7-0.96-2.4c-0.26-0.06-0.38-0.45-0.48-0.48c-2.99-1.03-1.88,2.44-1.44,3.6c-0.42,0.14-0.44,0.02-0.72,0.24
	c-0.93,0.73-0.81,0.64-2.16,0.24c0.18-0.29-0.5-0.33-0.24-0.48c1.35-0.82,0.79-2.35,0.72-4.32l0.72-0.24
	c1.21-2.13,0.22-1.99-1.92-1.92c0.17,2.41,0.51,1.73-1.44,2.16c-1.25-1.82-1.73-2.16-4.08-2.16c-0.09,0.2-0.29,0.92-0.48,1.2
	c0.09,0.14,0.68,0.62,0.72,0.72c-0.13,0.09,0,1.02,0,1.2c-0.67,0.13-0.95,0.02-1.44,0.24c-0.35-1.36-0.61-3.43-1.2-4.56
	c0.71-0.56,1.16-0.92,1.68-1.68c-0.2-0.33-0.17-0.87-0.24-1.2c-0.16-0.03-1.23-0.16-0.96,0c-0.73,0.39-0.77,0.06-1.2,0.72
	c-0.11,0.15-0.47,1.28-0.48,1.44c-0.28-0.07-0.94-0.25-0.96-0.24c-0.14-0.2-0.29-0.59-0.48-0.72c-0.26,0.17-0.39-0.41-0.48-0.48
	c1.79-1,1.84-0.69,1.44-2.64c-0.31-0.05-0.34-0.43-0.48-0.48c-0.3-0.11-1.12,0.2-0.96,0.24h-0.48c-0.35,0.12-0.32,1.06-0.72,1.2
	c-0.26,0.08-0.72-0.13-0.96,0c-0.3-1.12-0.73-2.75-1.68-3.12c-0.26-0.1-0.49,0.15-0.72,0C232.73,221.69,232.11,221.86,231.89,221.98
	z M310.61,189.34c-0.02-0.01-1.7,0.4-2.4,0.48c0.04,0.23-0.23,0.86,0.24,0.72c0.27,0.34,0.47,0.79,0.72,1.2
	c1.35-0.21,1.24,0.45,2.16-0.96l0.48-0.24c0.05-0.19-0.14-1-0.24-0.72C311.16,189.66,311.4,189.37,310.61,189.34z M321.65,158.14
	c-0.27,0.41-0.11,0.65-0.24,1.2c-1.1-0.29-1.55-0.19-2.64-0.48c-1.46,3.14-0.94,2.26-4.56,2.4l-1.2,0.48
	c-0.19,0.04-0.43-0.21-0.24-0.24c-0.34-0.15-0.87,0.14-1.2,0c-0.31-0.13-0.36-1.66-1.68-1.2c-0.03,0.01-0.58,0.92,0,0.72
	c0,0,0.19,1.18,0.24,1.44c-1.1,0.78-0.93,0.5-1.68,1.68c-0.71-0.21-0.97-0.16-1.44-0.48c-0.91-0.61-0.43-1.13-0.24-0.96
	c0.08-0.53,0.71-0.51,0.48-1.44c-0.06-0.22-0.83-0.52-0.96-0.72c-0.2-0.3-0.13-0.58-0.24-0.96c-0.08,0.02-0.85-0.18-1.2-0.24
	c-0.1,1.19-0.2,2.42,0,3.84c-0.58,0.06-2.08-0.02-2.88,0.24c-0.35,0.11-1.1,1.15-1.44,1.44c-0.3-0.13-0.89,0-1.2,0
	c-0.11-0.39-0.16-0.82-0.24-1.44c-0.67-0.17-1.65-0.82-2.88-0.48c-0.15,0.04-0.65,0.69-0.72,0.72h-0.48
	c-1.74,1.69,0.95,2.08,1.92,2.64c0.3,0.17,0.66,0.77,0.96,0.96c-0.4,0.27-0.66,0.44-0.96,0.72c-1.05-0.74-2.22-1.62-4.08-0.96
	c-0.41,0.13-0.79,0.85-1.2,0.96c-0.46,0.12-0.98-0.09-1.44,0c-0.25-0.95-0.77-2.84-1.92-2.88c-0.38-0.02-0.71,0.38-1.2,0.48
	c-0.06,0.25-0.45,0.38-0.48,0.48c-0.22,0.64-0.19,1.69-0.24,2.16c-1.75,0.45-2.95,0.96-5.04,1.2c-0.35,0.94-0.58,1.58-0.96,2.4
	h-0.48v-0.48c-0.4-1.15-1.58-0.65-2.4-0.48c-0.31,1.83-0.78,2.21-1.44,3.6c-2.05-0.68-1.59-0.64-3.12,0c0,0.43,0.1,1,0,1.44
	l0.72,0.24c-0.01,0,0,0.68,0,0.72c-1.21-0.18-1.89-0.04-2.88,0c-0.09,0.54-0.67,0.47-0.48,1.44c0.01,0.05,0.76,0.94,0.72,0.96
	c-0.68,0.29-1.02,1.92-1.2,2.64c-1.99,0.5-2.92,0.44-4.32,1.44c0.08,0.54-0.19,1.16,0,1.68c0.16,0.45,1.36,0.8,1.68,1.2
	c0.38,0.47,0.46,1.6,0.96,1.92c0.55,0.35,1.07-0.08,1.44,0c0.05,0.01,0.25,0.44,0.48,0.48c-0.01,0.02-0.43,1.43-0.24,1.44
	c-1.6-0.18-2.07-0.16-3.6,0.24c0.11-1.12,0.38-2.75-0.72-3.12c-0.27-0.1-0.71,0.11-0.96,0c-0.06,0.25-0.45,0.38-0.48,0.48
	c-0.38,1.11,0.52,1.56,0.24,2.64c-0.16,0.58-3.43,3.27-4.08,4.08c0.29,0.27,0.11,0.45,0.24,0.96c0.58,0.15,1.55,0.6,2.16,0.72
	c-2.76,0.68-4.12,1.66-2.88,4.32c-0.83,0.59-2.89,2.82-2.64,4.32c0.05,0.33,0.88,0.72,0.96,0.96c0.09,0.26-0.12,0.7,0,0.96
	c-0.53,0.3-3.24,2.31-3.36,2.64c-0.17,0.43,0.1,0.98,0,1.44c0.1,0.02,0.78,0.13,0.96,0.24c0.18,0.1,0.1,0.63,0.24,0.72
	c-0.38,0.65-1.5,1.5-1.68,2.16c-0.28,1,0.45,2.81-0.48,3.12c-0.54,0.17,0.72,1.44,0.72,1.44c0,0.08,0,0.16,0,0.24
	c0.17,0.08,0.62,0.83,0.72,0.96c0.25,0.34,0.41,0.45,0.72,0.72c-0.51,0.74-1.74,2-1.2,3.6c0.05,0.17,0.59,0.46,0.72,0.72
	c0.67-0.11,1.19-0.22,1.68-0.24c0,0.8,0,1.59,0,2.4c0.05-0.52,0.01,2.51,0.24,2.88c0.15,0.25,1.16,0.28,1.44,0.48
	c0.17,0.12,0.25,0.82,0.48,0.96c0.55,0.34,1.64,0.55,2.16,0.72c0,0.62-0.22,1.82,0,2.4c0.26,0.71,1.4,0.65,2.16,0.96
	c0.24-0.35,0.68-0.61,0.96-0.96c0.22-0.29,0.32-0.67,0.48-0.96c0.2,0.58,0.71,2.27,1.2,2.64c0.84,0.65,1.72,0.39,2.88,0.24
	c-0.1,0.17,0.04,0.54,0,0.72c-0.07,0.25-1,1-1.2,1.2c0.22,0.31,0.35,0.89,0.48,1.2c0.79,0,1.47-0.1,2.4,0
	c0.38,0.04,0.96,0.69,1.92,0.48c0.21-0.05,0.75-0.89,0.96-0.96c0.26-0.1,0.7,0.1,0.96,0c1.37,1.94,0.48,2.05,3.36,2.64
	c0.8-1.15,1.53-3.59,3.84-3.12c0.14,0.02,0.71,0.9,0.96,0.96c0.89,0.19,1.39-0.52,2.4-0.24c0.23,0.06,0.5,0.83,0.72,0.96
	c0.38,0.23,0.77-0.01,1.2,0.24c0.24,0.13,0.28,0.82,0.48,0.96c0.41,0.29,3.38,1.46,4.32,1.2c0.41-0.13,0.67-1.07,1.2-1.2
	c1.28-0.32,1.88,0.55,3.12,0.24c0.85-0.22,1.39-1.88,1.68-2.64c3.28,0.44,2.2,0.07,4.08-1.2c0.38-0.27,0.85-0.22,1.2-0.48
	c0.21-0.16,0.47-0.88,0.72-0.96c0.97-0.32,2.11,0.25,3.12,0c0.42-0.11,0.86-0.74,1.2-0.96c-0.08-0.4-0.26-1.08-0.24-1.2
	c-0.57-0.26-1.19-0.71-1.68-0.96c0.8,0.06,1.91,0.31,2.4,0.24c0.85-0.13,2.98-1.78,3.12-2.64c0.12-0.78-1.1-1.73,0-2.16
	c0.59-0.23,1.52,0.1,2.16,0c0.56-0.09,1.65-0.77,2.16-0.96c-0.11-0.32,0-0.86,0-1.2c-1.63-0.77-1.95-0.83-3.6,0.24l-0.24,0.48
	c-0.85,0.14-0.68-0.44-1.2-0.48c0.06-0.37,0.25-1.12,0.24-1.2c1.9,0.18,2.82,0.18,3.84-0.96c1.82-2.04,0.79-2.62-1.44-3.36
	c0.13-0.27-0.11-0.44,0-0.72c0.1-0.27,0.86-0.7,0.96-0.96c0.09-0.27-0.11-0.71,0-0.96h0.48c0.05,0.02,0,0.87,0,0.96
	c0.32,0.16,0.56,0.16,0.72,0.48c1.28-0.43,3.45-1.28,3.6-2.64c0.21-2.05-2.29-2-3.6-1.92c0.56-1.37,0.73-2.11,0.48-3.84
	c0.57-0.21,0.83-0.11,1.44-0.24c0.05-0.26,0.44-0.38,0.48-0.48c0.44-1.28-0.06-1.22,0.72-2.16c0.3-0.38,0.83-0.64,1.2-0.96
	c-0.06,0.21-0.46,0.83-0.48,0.96c-0.12,0.79,0.45,1,0.24,1.68c-0.08,0.24-1.01,0.78-1.2,0.96c0.1,0.31,0,0.85,0,1.2
	c1.18,0.23,1.06,1.08,2.4-0.24c0.43-0.44,0.24-0.79,0.48-1.44c0.22,0.14,0.7-0.1,0.96,0c0.19,0.07,0.41,1,0.48,1.2
	c0.95-0.46,2.19-0.57,2.64-1.44c0.11-0.22,0.74-3.41,0.72-3.6c-0.04-0.4-0.65-0.76-0.48-1.68c0,0,1.09-1.9,1.2-2.16
	c-0.83-0.23-1.03-0.53-1.92-0.72c0.13-0.08-0.13-0.65,0-0.72c0.35-0.21,0.83-0.16,1.2-0.24c-0.02-0.27-0.16-1.45,0-1.92
	c0.06-0.2,0.78-0.58,0.96-0.72c-0.56-1.19-0.71-1.88-1.2-3.12c0.52-0.25,0.97-0.17,1.44-0.48c0.19-0.13,0.5-0.88,0.72-0.96
	c0.76-0.31,1.48-0.02,2.16-0.24c0.44-0.16,0.74-0.73,1.44-0.72c1.48,0.02,1.79,1.53,2.16,2.64c0.22-0.13,0.8-0.49,0.96-0.48
	c-0.1-1.29,0.07-1.81,0.24-2.88c0.05-0.28-0.23-0.61-0.24-0.48c0-0.04,0-0.72,0-0.72c0.83-0.65,1.57-1.27,2.4-1.92
	c-0.09-0.47,0.12-0.99,0-1.44l-0.48-0.48c0,0-0.22-0.43-0.24-0.48c-0.78,0.11-1.66,0.47-2.4,0.24c-0.12-0.04-0.53-0.63-0.72-0.72
	c0.56-0.91,0.71-1.24,1.44-1.92c-0.32-1.26-1.16-4.82-0.96-6c0.15-0.94,1.63-1.65,1.92-2.4c0.69-1.9-0.59-6.25-1.68-6.72
	c-1.14-0.5-2.47,0.29-3.6-0.24c-0.36-0.17-0.24-0.87-0.48-1.2c-0.5-0.68-1.5-0.46-2.16-0.96c-0.76-0.58-1.58-3.52-2.4-3.84
	c-0.25-0.1-0.51,0.15-0.72,0c-0.43,2.39-0.35,2.29-2.64,2.88c-0.17-0.31-0.23-0.85-0.48-1.2c-0.19-0.26-1.12-0.47-1.2-0.72
	c-0.28-0.9,0.52-1.37,0.24-2.4c-0.1-0.36-0.94-0.73-1.2-0.96c0,0,0.22-0.45,0.24-0.48c0.58,0.05,1.36-0.19,1.92,0
	c0.48,0.16,0.83,1.28,1.44,1.44c3.05,0.77,2.41-1.47,1.2-2.4c-0.81-0.63-1.51-0.88-2.4-1.44L321.65,158.14z M172.85,155.02
	c-0.35,0.34,0,1.21-0.24,1.68c-0.23,0.42-1.49,1.03-2.4,0.72c0,0-0.45-1.28-1.2-1.44c-0.7-0.15-1.6,0.23-1.92,0.24l-0.24,1.92
	l-1.2,1.44l0.72,0.24c0.46,0.71,0.52,1,0.96,1.92c-0.25-0.12-0.7,0.09-0.96,0c-0.82-0.29-1.72-2.72-2.64-3.12
	c-1.17-0.52-3.19-0.47-4.56-0.72c-0.25,0.34-0.62,0.49-0.96,0.72c0.01,0,0,0.68,0,0.72c0.3,0.08,0.38,0.6,0,0.48
	c-0.05-0.01-0.2-0.4-0.24-0.48c-0.67,0-1.5,0.02-2.16,0c-0.29,1.58-0.96,2.29-1.68,3.36c-0.29-0.23-0.67-0.02-0.96-0.24
	c-0.1-0.08-0.46-0.89-0.48-0.96c1.61-0.45-2.71,0.09-0.96,0.24c-0.39,0.11-0.67,0.01-0.96,0.24l-1.44,1.68
	c-0.38,0.67-0.18,1.95-0.96,2.4c-0.36,0.2-1.4,0.19-1.68,0.24c-1.18,3.09-1.01,1.04-2.88,1.92c-0.31,0.14-0.45,0.98-0.72,1.2
	c-0.25,0.19-0.7,0.1-0.96,0.24l-0.24,0.48c-1.05,0.68-2.04,0.44-3.12,0.48c-0.14,0.34-0.23,1.03-0.48,1.44
	c-0.41,0.65-1.27,0.53-1.92,0.96c-0.83,0.53-2.78,3.65-3.36,3.84c-0.08,0.02-1.01-0.27-1.44-0.24c-0.89,0.05-2.39,0.53-3.12,0.72
	c0,1.26,0.1,2.12,0.24,3.12c-0.56-0.14,0.08,0.27-0.48,0.24l-0.48-0.48c-0.81-0.22-1.73,0.56-1.92,0.96c-0.4,0.83-0.06,1.58,0,2.4
	c0.41,0,1.04-0.13,1.44,0c-0.22,2.75,0.07,2.78-2.4,2.64c-0.07,0.16-0.59,0.61-0.72,0.72c0.28,0.95,0.21,1.38,0.48,2.4
	c-0.1-0.02-1.04,0.18-1.44,0.24c0,0,0.11-1.25-2.4,0.48c0.35,2.65-0.88,3.56-0.48,6.48c-0.71,0.41-1.52,1.02-2.16,1.44
	c0.08,0.42-0.09,0.77,0,1.2c0.12,0.6,0.87,1.4,0.96,2.16c0.09,0.83-0.01,1.55-0.24,2.16c-0.01,0.02-0.48,0.24-0.48,0.24
	c-0.27,1.48,0.33,3.25,0.48,4.56c0.29,0.1,0.61-0.01,0.72,0.24c0.1,0.25-0.13,0.71,0,0.96c-0.17,0.2-0.82,0.48-0.96,0.72
	c-0.78,1.26-0.04,2.39-0.24,3.84c0,0-0.43,0.21-0.48,0.24v0.48c-0.07,0.38-0.3,1.18,0,1.92c0.06,0.15,0.58,0.35,0.72,0.48v0.48
	c2.48,0.17,2.5,0.2,3.84-1.44c0.18,0.06,0.69,0.26,0.72,0.24c-0.1,0.34-0.45,0.79-0.48,0.96c-0.08,0.35,0.24,1.44,0.24,1.44
	c0.1,0.08,0.68,0.35,0.72,0.48c0.18,0.56-0.05,1.33,0,1.92c-2.2-1.02-3.63-0.81-2.64,1.92c0.12,0.34-0.02,0.55,0.24,0.72
	c0.43,0.28,1.1-0.02,1.68,0.24c0.15,0.07,0.56,0.93,0.72,0.96c1.54,0.29,2.17-1.28,2.64-2.16c0.27,0.13,0.66,0.46,0.96,0.48
	c-0.83,1.67-0.5,1.42,0,2.88c-0.05,0.02,0,0.66,0,0.72c-0.13-0.35-0.26,0.62-0.24,0.72c0.31,1.42,2.28,1.29,3.6,1.2
	c-0.08,0.12,0.04,0.58,0,0.72c-0.26,0.65-1.83,1.33-2.4,1.68c0.14,0.4-0.15,0.79,0,1.2c0.08,0.24,1.4,1.37,1.68,1.44
	c0.99,0.24,2.75-0.39,3.36-0.72c0.23-0.13,0.62-0.91,0.96-0.96c0.76-0.13,1.03,0.3,1.68,0.48c-0.02,0,0,0.68,0,0.72
	c-2.99,0.33-3.78,1.07-2.16,3.36c1.28-0.33,1.59-0.16,2.88-0.48c0.1,0.79,0.32,2.34,0.96,2.64c0.43,0.2,1.18-0.07,1.68,0
	c2.55,0.35,2.61,1.45,4.32-0.96c1.23,0.14,1.99,0.35,2.88,0l0.48-0.48c0.8-0.11,1.63,0.44,2.16,0.48c0.68,0.04,0.92-0.24,1.44-0.24
	c0.15-0.61,0.27-1.13,0.48-1.92c-0.38-0.31-0.77-0.46-1.2-0.72v-0.48c0.79-0.38,1.69-0.97,2.4-1.2c0.82-0.28,2.11-0.39,2.88,0
	l0.48,0.48c1.24,0.18,1.85-0.59,2.64-0.72c0.54-0.1,1.42,0.21,1.92,0c0.73-0.32,0.69-1.82,1.2-2.4c0.53-0.63,1.74-0.92,2.4-1.44
	c-0.23-0.58,0.72,0,0.72,0c0.34,2.18-0.03,1.81,2.16,2.16c0.36-0.68,0.95-2.14,1.92-2.16c0.42-0.02,0.13,0.33,0.72,0.24
	c0.12,0.34-0.13,0.85,0,1.2c0.05,0.13,0.6,0.47,0.72,0.72c0.26-0.11,0.68,0.07,0.96,0c0.75-0.21,1.15-1.95,1.44-2.64
	c2.69-0.11,2.13,0.13,3.12-1.68c1.07,0.14,1.63,0.07,2.64,0c0.05-0.26,0.44-0.38,0.48-0.48c0.18-0.52-0.18-1.15,0-1.68
	c0.14-0.43,1.16-0.83,1.44-1.2c0.31-0.41,0.35-1.12,0.72-1.44c0.71-0.64,1.81-0.67,2.16-1.68c0.18-0.53-0.11-1.12,0-1.68
	c0.04-0.29,0.69-1.16,0.72-1.44c0.18-1.83-0.88-1.99-1.92-2.64c-0.32,0.42-0.64,0.79-0.96,1.2c0.6,0.11-0.72,0.48-0.72,0.48
	c0.23-1.3-0.19-1.26,1.2-2.16c0.56-0.37,0.91-0.33,1.44-0.72c0.16-0.13,0.29-0.64,0.48-0.72c0.82-0.4,1.81-0.03,2.64-0.48
	c0.38-0.22,0.18-0.97,0.48-1.2c-0.38-0.69-0.09-0.79-0.72-1.2c-0.36-0.23-0.74-0.29-1.2-0.48c0.25-0.17,0.43-0.85,0.72-0.96
	c0.69-0.28,1.39,0.07,1.92-0.24c0.47-0.29,0.16-0.75,0.48-1.2c0.2-0.3,1.01-0.44,1.2-0.72c0.22-0.35,1.09-2.93,0.96-3.6
	c-0.08-0.38-0.83-0.69-0.96-0.96c-0.26-0.56-0.05-0.94-0.24-1.68c0.32-0.01,0.35-0.45,0.48-0.48c0.51-0.13,0.69,0.41,0.96,0.48
	c1.46,0.33,1.76-0.52,2.4-0.96c-0.12-1.03-0.28-2.29-0.24-3.12c-1.14-0.58-1.61-0.22-1.68-1.92c-0.08-1.65,0.82-1.55,0.96-2.16
	c0.11-0.5-0.23-1.34-0.24-1.44c-0.18-2.12,0.58-2.33,0-4.32c0.32-0.12,0.86,0,1.2,0c0.72-1.54,0.63-0.91,0.24-2.64
	c-0.32-0.1-0.76-0.06-0.96-0.24c-0.53-0.49-1.01-1.37-1.44-1.92c1.04-0.82,1.77-1.64,2.88-2.4c-0.13-0.42,0.12-0.79,0-1.2
	c-0.04-0.14-0.67-0.71-0.72-0.96c-0.23-1.04-0.1-1.71-0.24-2.64c0.27,0.01,1.31,0.18,1.92,0.24c0,0,0.29-1.11,0.24-1.44
	c-0.02-0.12-1.15-3.07-1.2-3.12c-0.24-0.22-0.95-0.32-1.2-0.48c0.35-1.11,1.17-3.1-0.24-3.6c-0.41-0.15-0.79,0.14-1.2,0
	c-0.17,0.45-0.29,0.86-0.48,1.2c-1.2,2.09-0.21,0.14-1.2,0.48c0-0.44,0.11-1.03,0-1.44c0.07-0.04,0.46-0.19,0.48-0.24
	c0.11-0.35,0.24-0.3,0.48-0.48c-0.19-0.52-0.41-1.07-0.48-1.44c-0.43,0.2-1.93,0.83-2.4,0.72c-0.05-0.01-0.6-0.69-0.72-0.72
	c-0.28-0.08-0.7,0.1-0.96,0c-0.19,0.18-0.75,1.12-0.96,1.2c-0.26,0.08-0.72-0.13-0.96,0c0.84,0-0.47-3.1-0.48-3.12
	c1.23-0.46,1.28-0.6,2.16-1.2c-0.11-0.42,0-1.01,0-1.44c-1.05-0.2-1.26-0.35-2.64-0.24c-0.31-0.63-0.23-0.55-0.72-0.96
	c-0.74,0.45-0.83,0.75-1.92,1.2c-0.28,2.44-0.13,2.41,1.92,2.4c-0.5,1-0.41,1.37-0.72,2.64c-0.6-0.79-1.47-1.7-2.4-2.16
	c-0.08,0-0.16,0-0.24,0c-0.41-0.83-0.11-2-0.24-2.88c0.51-0.1,0.45,0,0.72-0.24c0.35-0.33,1.17-0.58,1.44-0.96
	c0.11-0.17,0.2-1,0-0.72c-0.07-0.04-0.34-0.89-0.48-0.96c-1.14-0.59-2.87,0.23-3.84,0c-0.68-0.17-1.03-1.7-1.68-1.92h-0.48
	C173.44,155,173.02,154.85,172.85,155.02z M244.37,124.78c-0.24,0.67,0.16,1.2,0.24,1.68c-0.26,0.05-0.38,0.44-0.48,0.48
	c-0.87,0.29-1.98-0.23-2.88,0c-0.48,0.11-1.16,1.09-1.68,1.2c-1.11,0.22-1.7-0.51-2.64,0.24c-0.45,0.34-1.42,3.4-1.68,4.08
	c-0.26-0.14-0.45,0.1-0.72,0c-0.27-0.1-0.62-0.83-0.96-0.96c-2.2-0.89-2.12,0.91-3.12,1.68c-0.37,0.27-1,0.27-1.44,0.48
	c0,0-0.18-0.71-0.24-0.96c0.28-0.26,1.09-0.55,1.2-0.96c0.07-0.27-0.11-0.71,0-0.96c-0.21-0.17-0.43-0.14-0.48-0.48
	c-0.44,0-1.01,0.1-1.44,0c-0.24,0.33-0.87,0.81-0.96,1.2c-0.04,0.16,0.1,0.55,0,0.72c-0.18,0.25-1.12,0.45-1.2,0.72
	c-0.36,1.09,0.24,1.91,0.48,2.64h-0.48c-0.35,0.11-1.06,1.37-0.96,1.92c0.03,0.2,0.65,0.58,0.72,0.72c0.08,0.17,0.11,0.85,0.24,0.96
	c0.2,0.17,0.56,0.02,0.72,0.24c-0.43,0.91-0.39,1.3-0.72,2.4c-0.13-0.08-0.59,0-0.72,0c-0.63-1.33-0.79-0.84-0.48-2.88
	c-0.24-0.11-0.75-0.67-0.96-0.72c-0.72-0.19-1.7,0.2-2.4,0c-0.24-0.08-0.38-0.87-0.72-0.96c-0.26-0.08-1.15,0.19-0.96,0.24
	c-0.29,0.51-0.65,1.01-0.96,1.68c-0.04,0.08-0.46,0.17-0.48,0.24c-0.16,0.39,0.04,1.16-0.24,1.44c-0.44,0.4-1.22,0.1-1.68,0.48
	c-0.34,0.26-1,3.74-0.48,4.08c0.74,0.48,1.18,0.02,1.68-0.24c0.38-0.2,0.17-0.47,0.24-0.96c0.16,0.05,0.72,0.24,0.72,0.24
	c-0.14,0.72-0.19,0.86-0.24,1.68c-0.26,0.05-0.38,0.44-0.48,0.48c-0.73,0.25-1.89-0.19-2.64,0l-0.24,0.48
	c-0.39,0.25-0.73,0.02-1.2,0.24c0.26-1.28,0.39-2.02,0.72-3.12c-0.45-0.19-0.12-0.02-0.24-0.48c-1.15-0.09-2.17-0.46-2.88,0.48
	c-0.94,1.22-0.59,2.46,0,3.6c-0.48,0.58-1.31,1.25-1.44,2.16c-0.04,0.29,0.14,0.95,0,1.2c-0.05,0.07-1.09,0.21-1.2,0.24
	c-0.08,0.47-0.06,1.07-0.24,1.68c0.04,0.01,0.86,0.16,0.96,0.24c0.26,0.22,0.23,1.01,0.48,1.2c-0.52-0.02-3.21,0.23-3.84,0.72
	c-0.6,0.45,0.32,2.89,0,3.84c-0.17,0.5-0.94,1.01-1.2,1.44c-1.09,1.74-1.88,3.05-3.12,4.56c-0.21,0.25-0.84,0.48-0.96,0.96
	c-0.75,2.95,0.72,1.88,1.44,2.16c0.16,0.06,0.94,0.77,1.2,0.96c-0.44,0.94-1.53,2.42-0.72,3.84c0.14,0.25,0.81,0.4,0.96,0.72
	c0.16,0.35-0.34,0.17-0.24,0.72c0.23,1.41,1.81,1.44,3.12,1.44c-0.14,0.05-0.91,0.71-0.96,0.72c-2.32,0.68-1.97-0.33-2.88,1.92
	c-1.07-1.42-1.88-1.76-4.08-2.16c-0.18,0.38-0.44,0.46-0.72,0.72c0.43,1.09,0.45,1.61,0.96,2.64c-0.38,0.25-1.16,0.59-1.44,0.96
	c-0.27,0.33-0.19,0.92-0.48,1.2c-0.25,0.23-0.67,0.05-0.96,0.24c-0.31,0.19-0.73,0.9-0.96,1.2c0.1,0.17,0,0.76,0,0.96
	c1.22,0.31,1.36,0.44,2.88,0.24c-0.13,0.26,0.11,0.43,0,0.72l-0.48,0.24c-0.52,0.79-0.27,1.26-0.48,2.4
	c0.15,0.08,0.87,0.35,0.96,0.48c0.68,0.93,1.03,1.72,1.68,2.64c-0.47,0.32-1.75,0.87-1.92,1.44c-0.13,0.41,0.12,0.78,0,1.2
	c0.63,0.17,1.74,0.38,2.4,0.72c0.14,0.07,0.5,0.66,0.72,0.72c0.42,0.11,0.77-0.11,1.2,0c-0.14,0.55-0.27,1.08-0.48,1.92
	c-0.6,0.02-0.67-0.46-1.44-0.24c-0.14,0.04-0.5,0.61-0.72,0.72c0.91,1.7-0.11,1.24,2.4,1.44c0.23,0.64,0.49,1.37,0.72,1.92
	c0.08,0,0.16,0,0.24,0c0.19,1.01-0.32,1.37-0.24,2.4c0.06,0.86,0.82,2.59,0.96,3.36c0.1,0.55-0.19,1.15,0,1.68
	c0.03,0.1,0.42,0.22,0.48,0.48c1.99-0.7,0.6,0.41,1.92-1.2c0.26,0.13,0.44-0.11,0.72,0c0.07,0.02,0.56,0.68,0.72,0.72
	c1.03,0.23,1.18-0.44,2.16,0c1.06,0.48-0.11,1.19-0.24,1.68c-0.07,0.27,0.1,0.69,0,0.96c1.77,1.27,2.42,2,5.04,1.92
	c0.14-0.33,0.24-0.88,0.48-1.2c0.18-0.26,0.78-0.27,0.96-0.48v2.64c0.06,0.29,1.39,1.92,1.68,2.4c0.65-0.05,1.26,0,1.92,0
	c0.08-0.16,0.34-0.93,0.48-0.96c2.16-0.49,2.74,1.86,3.84,2.16c0.68,0.18,1.07-0.14,1.68-0.24c0.23,0.29,0.35,1.07,0.72,1.2
	c0.26,0.08,0.71-0.14,0.96,0c0.04-0.25,0.44-0.38,0.48-0.48c0.13-0.41-0.12-0.79,0-1.2c-0.22-0.04-1.29-0.07-1.68-0.24
	c-0.42-0.19-0.6-1.32-0.96-1.44h-0.48c-0.13-0.26,0.13-0.71,0-0.96c0.16-0.26,0.58-0.67,0.72-0.96c0.32,0.28,0.98,0.33,1.2,0.72
	c0.12,0.23-0.08,0.71,0,0.96c0.1,0.37,0.75,0.66,0.96,0.96c0.46-0.09,0.98,0.11,1.44,0c0.83-0.19,1.03-1.15,2.16-1.2
	c1.3-0.06,2.52,1.19,4.32,0.72c1.22-0.33,0.92-1.9,1.68-2.4c0.84-0.56,2.02-0.14,3.12-0.48c0.26-0.09,0.67-0.59,0.96-0.72
	c0-0.21-0.1-0.78,0-0.96c0.13-0.26,0.56-0.16,0.72-0.48c1.12,0.36,2.55,1.15,3.84,0.48c0.31-0.16,0.46-1.01,0.72-1.2
	c0.24-0.19,0.69-0.1,0.96-0.24c0.23-0.13,0.72-0.84,0.96-0.96c0.56-0.3,1.13-0.27,1.68-0.48c0,0,0.31-1.12,0.24-1.44
	c-0.09-0.37-0.89-0.69-0.96-0.96c-0.19-0.71,0.31-0.61,0.24-1.2c0.34-0.25,0.49-0.62,0.72-0.96c0.94,0.13,2,0.42,2.88,0
	c0.53-0.26,0.37-0.8,0.72-1.2c0.47-0.56,1.57-1.03,2.16-1.44c-0.1-0.78-0.34-1.57-0.24-2.16c0.09-0.54,0.96-1.05,1.2-1.44
	c0.31-0.52,0.22-0.89,0.48-1.44c-0.08-0.06-0.69-0.39-0.72-0.48c-0.11-0.28,0.13-0.46,0-0.72c1.91-1.36,2.27-2.08,0-3.36
	c1.42-0.74,2.66-1.5,4.08-2.16c-0.11-0.32,0-0.86,0-1.2c-0.28-0.13-0.7-0.64-0.96-0.72c-0.96-0.3-1.55,0.03-2.16-0.48
	c-0.25-0.22-0.14-0.79-0.24-1.2c-0.53,0.19-0.37-0.67-0.48-0.96c0.04,0,1.34,0.09,0.96,0.24c1.54-0.18,4.24-0.37,2.88-2.4
	c-0.13-0.19-0.9-0.29-0.96-0.48c-0.15-0.47,0.43-1.15,0.24-1.92c-0.16-0.61-1.05-0.73-1.2-0.96c-0.49-0.75-0.71-0.97,0.24-1.44
	c-0.12-1.64-0.2-1.58,0.72-2.4c0.05-0.05,0.64,0,0.72,0c0.04-0.27,0.02-1.37,0.24-1.68l1.44-0.72c-0.33-1.01-0.72-1.97-0.48-2.64
	c0.06-0.19,0.68-0.78,0.72-0.96c0.09-0.56-0.33-0.35-0.24-0.72c-0.28,0.06-0.94,0.24-0.96,0.24c-0.6,2.02-0.38,2.71-1.68,0.96
	c-0.64,0.08-0.56,0.31-0.96,0.48c0,0-0.04-1.51,0-1.92c1.92-0.44,1.2-0.11,2.16-1.44c0.21,0.15,0.47-0.1,0.72,0
	c0.25,0.1,0.3,0.83,0.48,0.96c1.11,0.79,2.6,0.25,3.6,0c-0.11-0.47,0.13-0.99,0-1.44c-0.08-0.28-0.88-0.84-0.96-1.2
	c-0.07-0.27-0.14-1.32,0.24-1.2v-0.48c-0.05-0.15-0.69-0.64-0.72-0.72c-0.06-0.14,0.06-0.59,0-0.72c1.78-0.78,2.01-0.91,2.88-2.64
	l0.48-0.48c0.08-0.52-0.42-0.92-0.24-1.68c0.09-0.42,0.89-0.94,0.96-1.44c0.07-0.53-0.4-1.12-0.24-1.92c0.1-0.48,1.09-1.29,1.2-1.68
	c0.14-0.52-0.09-1.15,0-1.68c-1.58-0.92-1.5-0.53-1.68-2.88c0.39-0.25,0.14-0.21,0.24-0.72h0.48c0.02,0.48-0.04,1.21,0,1.92
	c0.04-0.01,1.33-0.04,0.96-0.24c0.09-0.29,0.48-1.23,0.72-1.44c0.03-0.04,0.01-0.67,0-0.72c-0.1-0.39-0.71-0.86-0.96-1.2
	c0.19-0.32,0.55-0.68,0.72-0.96c0.17-0.29,0.67-1,0.72-1.2c0.25-1.14-0.46-2.09-0.48-2.64c-0.04-0.96,0.58-1.46,0.48-2.64
	l-0.48-0.72c-0.55-2.65-0.12-2.24-2.64-2.88c-0.11,0.48-0.37,1.37-0.48,1.92c-0.46,0.12-0.3-0.21-0.48,0.24
	c-0.84-0.04-1.9-0.2-2.4-0.24c0.1-1.84-0.02-2.5-0.48-4.08c-0.7-0.16-1.88-0.82-2.88-0.48c-0.18,0.05-0.46,0.59-0.72,0.72
	c0,0.55,0.08,1.12,0,1.68h-0.48c-0.24-0.5,0-0.76-0.24-1.2c-0.34-0.59-1.54-1.11-1.68-1.92c-0.23-1.36,0.66-1.39,0.48-2.64
	c-0.05-0.34-2.1-3.06-2.4-3.12c-1.33-0.28-1.52,0.62-2.16,0.96c-0.78,0.41-1.69,0.62-2.4,0.96c0.39,1.58,1.31,4.51-1.68,3.84
	c-1.06-0.24-0.77-0.97-1.2-1.92c-0.07-0.16-0.69-0.32-0.72-0.48c-0.22-1.1,0.58-2.06,0-3.12c-0.35-0.62-1.21-0.43-1.92-0.72
	C245.04,124.43,244.41,124.64,244.37,124.78z"/>
</svg>
